<?xml version="1.0" encoding="UTF-8" standalone="no"?>
<!DOCTYPE svg PUBLIC "-//W3C//DTD SVG 1.1//EN"
 "http://www.w3.org/Graphics/SVG/1.1/DTD/svg11.dtd">
<!-- Generated by graphviz version 14.1.1 (20251213.1925)
 -->
<!-- Title: sx1262_lora_set_continuous_receive_mode Pages: 1 -->
<svg width="321pt" height="242pt"
 viewBox="0.00 0.00 321.00 242.00" xmlns="http://www.w3.org/2000/svg" xmlns:xlink="http://www.w3.org/1999/xlink">
<g id="graph0" class="graph" transform="scale(1 1) rotate(0) translate(4 238)">
<title>sx1262_lora_set_continuous_receive_mode</title>
<!-- Node1 -->
<g id="Node000001" class="node">
<title>Node1</title>
<g id="a_Node000001"><a xlink:title="lora example enter to the continuous receive mode">
<polygon fill="#999999" stroke="#666666" points="139.75,-142 0,-142 0,-110 139.75,-110 139.75,-142"/>
<text xml:space="preserve" text-anchor="start" x="8" y="-128.5" font-family="Helvetica,sans-Serif" font-size="10.00">sx1262_lora_set_continuous</text>
<text xml:space="preserve" text-anchor="middle" x="69.88" y="-116.5" font-family="Helvetica,sans-Serif" font-size="10.00">_receive_mode</text>
</a>
</g>
</g>
<!-- Node2 -->
<g id="Node000002" class="node">
<title>Node2</title>
<g id="a_Node000002"><a xlink:href="group__sx1262__command__driver.html#ga175472c2bcfcae28b9429b79705783ad" target="_top" xlink:title="clear the irq status">
<polygon fill="white" stroke="#666666" points="305,-234 183.25,-234 183.25,-214 305,-214 305,-234"/>
<text xml:space="preserve" text-anchor="middle" x="244.12" y="-220.5" font-family="Helvetica,sans-Serif" font-size="10.00">sx1262_clear_irq_status</text>
</a>
</g>
</g>
<!-- Node1&#45;&gt;Node2 -->
<g id="edge1_Node000001_Node000002" class="edge">
<title>Node1&#45;&gt;Node2</title>
<g id="a_edge1_Node000001_Node000002"><a xlink:title=" ">
<path fill="none" stroke="#63b8ff" d="M88.08,-142.2C107.82,-159.97 141.85,-188.19 175.75,-205 179.23,-206.73 182.89,-208.32 186.64,-209.78"/>
<polygon fill="#63b8ff" stroke="#63b8ff" points="185.3,-213.02 195.9,-213.06 187.64,-206.42 185.3,-213.02"/>
</a>
</g>
</g>
<!-- Node3 -->
<g id="Node000003" class="node">
<title>Node3</title>
<g id="a_Node000003"><a xlink:href="group__sx1262__command__driver.html#ga98ccb8e655ac6052d666a17dcecb15b3" target="_top" xlink:title="enter to the continuous receive mode">
<polygon fill="white" stroke="#666666" points="312.5,-196 175.75,-196 175.75,-176 312.5,-176 312.5,-196"/>
<text xml:space="preserve" text-anchor="middle" x="244.12" y="-182.5" font-family="Helvetica,sans-Serif" font-size="10.00">sx1262_continuous_receive</text>
</a>
</g>
</g>
<!-- Node1&#45;&gt;Node3 -->
<g id="edge2_Node000001_Node000003" class="edge">
<title>Node1&#45;&gt;Node3</title>
<g id="a_edge2_Node000001_Node000003"><a xlink:title=" ">
<path fill="none" stroke="#63b8ff" d="M110.38,-142.5C129.89,-150.38 153.88,-159.66 175.75,-167 181.23,-168.84 186.99,-170.65 192.75,-172.38"/>
<polygon fill="#63b8ff" stroke="#63b8ff" points="191.7,-175.72 202.28,-175.17 193.67,-169 191.7,-175.72"/>
</a>
</g>
</g>
<!-- Node4 -->
<g id="Node000004" class="node">
<title>Node4</title>
<g id="a_Node000004"><a xlink:href="group__sx1262__register__driver.html#ga1db8d8bae9c96a7e88959d4bd046d0ca" target="_top" xlink:title="get the iq polarity">
<polygon fill="white" stroke="#666666" points="302,-158 186.25,-158 186.25,-138 302,-138 302,-158"/>
<text xml:space="preserve" text-anchor="middle" x="244.12" y="-144.5" font-family="Helvetica,sans-Serif" font-size="10.00">sx1262_get_iq_polarity</text>
</a>
</g>
</g>
<!-- Node1&#45;&gt;Node4 -->
<g id="edge3_Node000001_Node000004" class="edge">
<title>Node1&#45;&gt;Node4</title>
<g id="a_edge3_Node000001_Node000004"><a xlink:title=" ">
<path fill="none" stroke="#63b8ff" d="M139.94,-134.82C151.39,-136.28 163.25,-137.8 174.67,-139.26"/>
<polygon fill="#63b8ff" stroke="#63b8ff" points="174.06,-142.71 184.42,-140.5 174.95,-135.76 174.06,-142.71"/>
</a>
</g>
</g>
<!-- Node5 -->
<g id="Node000005" class="node">
<title>Node5</title>
<g id="a_Node000005"><a xlink:href="group__sx1262__command__driver.html#gad23030cdab10377d83bfdfb7c7e06243" target="_top" xlink:title="set the dio irq params">
<polygon fill="white" stroke="#666666" points="294.12,-120 194.12,-120 194.12,-88 294.12,-88 294.12,-120"/>
<text xml:space="preserve" text-anchor="start" x="202.12" y="-106.5" font-family="Helvetica,sans-Serif" font-size="10.00">sx1262_set_dio_irq</text>
<text xml:space="preserve" text-anchor="middle" x="244.12" y="-94.5" font-family="Helvetica,sans-Serif" font-size="10.00">_params</text>
</a>
</g>
</g>
<!-- Node1&#45;&gt;Node5 -->
<g id="edge4_Node000001_Node000005" class="edge">
<title>Node1&#45;&gt;Node5</title>
<g id="a_edge4_Node000001_Node000005"><a xlink:title=" ">
<path fill="none" stroke="#63b8ff" d="M139.94,-117.18C153.98,-115.39 168.65,-113.51 182.38,-111.76"/>
<polygon fill="#63b8ff" stroke="#63b8ff" points="182.67,-115.25 192.15,-110.51 181.79,-108.31 182.67,-115.25"/>
</a>
</g>
</g>
<!-- Node6 -->
<g id="Node000006" class="node">
<title>Node6</title>
<g id="a_Node000006"><a xlink:href="group__sx1262__register__driver.html#ga24eafbf45c012992dd79433ccff01947" target="_top" xlink:title="set the iq polarity">
<polygon fill="white" stroke="#666666" points="302,-70 186.25,-70 186.25,-50 302,-50 302,-70"/>
<text xml:space="preserve" text-anchor="middle" x="244.12" y="-56.5" font-family="Helvetica,sans-Serif" font-size="10.00">sx1262_set_iq_polarity</text>
</a>
</g>
</g>
<!-- Node1&#45;&gt;Node6 -->
<g id="edge5_Node000001_Node000006" class="edge">
<title>Node1&#45;&gt;Node6</title>
<g id="a_edge5_Node000001_Node000006"><a xlink:title=" ">
<path fill="none" stroke="#63b8ff" d="M103.9,-109.7C124.29,-100.01 151.18,-87.92 175.75,-79 180.84,-77.15 186.19,-75.38 191.57,-73.7"/>
<polygon fill="#63b8ff" stroke="#63b8ff" points="192.54,-77.06 201.11,-70.84 190.53,-70.36 192.54,-77.06"/>
</a>
</g>
</g>
<!-- Node7 -->
<g id="Node000007" class="node">
<title>Node7</title>
<g id="a_Node000007"><a xlink:href="group__sx1262__command__driver.html#ga7c51c80cbdddde2fec9fce989396992e" target="_top" xlink:title="set the packet params in LoRa mode">
<polygon fill="white" stroke="#666666" points="305,-32 183.25,-32 183.25,0 305,0 305,-32"/>
<text xml:space="preserve" text-anchor="start" x="191.25" y="-18.5" font-family="Helvetica,sans-Serif" font-size="10.00">sx1262_set_lora_packet</text>
<text xml:space="preserve" text-anchor="middle" x="244.12" y="-6.5" font-family="Helvetica,sans-Serif" font-size="10.00">_params</text>
</a>
</g>
</g>
<!-- Node1&#45;&gt;Node7 -->
<g id="edge6_Node000001_Node000007" class="edge">
<title>Node1&#45;&gt;Node7</title>
<g id="a_edge6_Node000001_Node000007"><a xlink:title=" ">
<path fill="none" stroke="#63b8ff" d="M87.41,-109.69C107.07,-91.01 141.55,-60.5 175.75,-41 178.08,-39.67 180.5,-38.39 182.97,-37.15"/>
<polygon fill="#63b8ff" stroke="#63b8ff" points="184.36,-40.37 191.97,-32.99 181.42,-34.01 184.36,-40.37"/>
</a>
</g>
</g>
</g>
</svg>
